<svg xmlns="http://www.w3.org/2000/svg" xmlns:xlink="http://www.w3.org/1999/xlink" viewBox="0 0 169.81 169.14"><defs><style>.cls-1{fill:url(#Dégradé_sans_nom_11);}.cls-2{fill:#1d1d1d;}.cls-3{font-size:36px;font-family:Bauhaus93, "Bauhaus 93";}.cls-4{fill:none;}.cls-5{font-size:24px;font-family:MyriadPro-Regular, Myriad Pro;}</style><linearGradient id="Dégradé_sans_nom_11" x1="2.8" y1="84.9" x2="165.95" y2="84.9" gradientUnits="userSpaceOnUse"><stop offset="0" stop-color="#009fe3"/><stop offset="0.15" stop-color="#03a0e3"/><stop offset="0.28" stop-color="#0ea4e5"/><stop offset="0.4" stop-color="#1fabe6"/><stop offset="0.52" stop-color="#38b4e9"/><stop offset="0.63" stop-color="#58c0ed"/><stop offset="0.74" stop-color="#7fcff1"/><stop offset="0.85" stop-color="#ade0f6"/><stop offset="0.95" stop-color="#e2f4fc"/><stop offset="1" stop-color="#fff"/></linearGradient></defs><g id="Calque_2" data-name="Calque 2"><g id="Calque_1-2" data-name="Calque 1"><rect class="cls-1" x="2.8" y="3.33" width="163.15" height="163.15"/><path class="cls-2" d="M168.39,165.71c0,1,.38.62.45.76C168.75,164.86,168.28,165.75,168.39,165.71Z"/><polygon class="cls-2" points="167.43 149.81 167.6 150.09 167.19 147.74 167.43 149.81"/><path class="cls-2" d="M167.44,134.93c-.71,1.41.12,5.39-.14,8l-.16.44.57,1.2C167.62,141.38,167.24,137.2,167.44,134.93Z"/><path class="cls-2" d="M169,127c-.28.49-.24-1.71-.09,1.85,0-.18,0-.23.07-.33C169,128.2,169,127.76,169,127Z"/><path class="cls-2" d="M169,128.52c0,1.56.23-1,0,0Z"/><path class="cls-2" d="M168.81,121.28l.25,2.07c.16-.43.2-2.27.32-1.59C169.24,119.65,169.08,120.08,168.81,121.28Z"/><path class="cls-2" d="M168.29,119.33l.1,1.07A1.57,1.57,0,0,0,168.29,119.33Z"/><path class="cls-2" d="M168.62,122.67l-.23-2.27c-.11.3-.34.33.08,1C168.26,121.25,168.47,121.7,168.62,122.67Z"/><path class="cls-2" d="M168.51,124c-.16,1.16-.26,2.65-.5.58C168.11,128.48,168.61,127.9,168.51,124Z"/><path class="cls-2" d="M166.7,134.17l-.21,1.55.24,1.34C166.62,136.39,166.93,134.08,166.7,134.17Z"/><path class="cls-2" d="M169.18,108.43c-.15-.13-.41.7-.6.85l.17,1.52C168.86,110,169,108.54,169.18,108.43Z"/><path class="cls-2" d="M168.58,109.28l-.26-2.28C168.29,109,168.41,109.41,168.58,109.28Z"/><polygon class="cls-2" points="167.5 118.96 168.04 122.71 167.49 118.24 167.5 118.96"/><polygon class="cls-2" points="169.2 99.72 169.55 101.02 169.02 98.71 169.2 99.72"/><path class="cls-2" d="M169.14,94c.29,1,.49-1.31.67-.3a25.57,25.57,0,0,0-.53-4.12A18.33,18.33,0,0,1,169.14,94Z"/><path class="cls-2" d="M169,87.51c.07.64.2,1.3.33,2A13.94,13.94,0,0,0,169,87.51Z"/><path class="cls-2" d="M168.4,103.12a3.83,3.83,0,0,0,.43-1.8l-.43.9Z"/><path class="cls-2" d="M168.39,102.25v0c0-1,0-1.65,0-1.94C168.42,100.53,168.41,101.12,168.39,102.25Z"/><path class="cls-2" d="M168.39,103.34v-.22A.18.18,0,0,0,168.39,103.34Z"/><path class="cls-2" d="M167.88,113c-.24-1.34-.49-4.13-.86-1.43C167.32,112.51,167.52,111,167.88,113Z"/><path class="cls-2" d="M167.86,104.46l-.1,2.42c.11,0,.28-.49.4.18Z"/><polygon class="cls-2" points="167.72 103.27 167.86 104.46 167.9 103.56 167.72 103.27"/><path class="cls-2" d="M168.55,91.66a24.62,24.62,0,0,1-.23-3.49c-.08,1.39-.13,2.82-.13,4.18C168.33,92.54,168.57,93.14,168.55,91.66Z"/><path class="cls-2" d="M168.44,96.8l0-.23C168.38,96.71,168.36,96.83,168.44,96.8Z"/><path class="cls-2" d="M168.33,75.45l-.08.2.07,0Z"/><path class="cls-2" d="M168.12,92.58a6.77,6.77,0,0,0,.15,2.26c0-.78-.07-1.6-.08-2.49C168.13,92.26,168.09,92.25,168.12,92.58Z"/><path class="cls-2" d="M168.75,84c-.08.54-.16,1.15-.23,1.8A5,5,0,0,0,168.75,84Z"/><path class="cls-2" d="M168.53,96.22l0,.16C168.64,96,168.6,96.08,168.53,96.22Z"/><path class="cls-2" d="M168.53,96.22a12.68,12.68,0,0,0-.26-1.38c0,.63.08,1.22.14,1.73A2,2,0,0,1,168.53,96.22Z"/><path class="cls-2" d="M165.58,71.59c.4.18.77,2.92.34,5.29.3,2.32,1.6.8,2.33-1.23-.17-.07-.33-.07-.57-2.47-.21.84-.5,5.32-.86,3.3-.21-3.17.14-2.6.35-4.14-.5,1.31-.72-4-1.45-3.35l.26,2.78C165.87,71.83,165.69,70.82,165.58,71.59Z"/><path class="cls-2" d="M168.21,80.21l0,1a21.53,21.53,0,0,1,.53-3.41c-.19-1.64-.34-2-.47-2.09l0,4.85Z"/><path class="cls-2" d="M168.26,85.62c-.43-.77-.62-3.14-1.08-1.69,0,2.89.36,2,.55,3.75-.11-4.66.24,1.34.48-2,.07.92.1,1.74.11,2.52.06-.84.12-1.65.2-2.41l0,.11v0h0c-.06.21-.09.27-.06,0a.31.31,0,0,0,0-.09.53.53,0,0,1-.16-.21c.09-1.35.11-.22.16.21,0,0,.05,0,.07,0h0l-.23-4.67C168.2,82.18,168.21,83.42,168.26,85.62Z"/><path class="cls-2" d="M166.1,109.06c0-.14.07-.14.1-.15C166.14,108.61,166.11,108.5,166.1,109.06Z"/><path class="cls-2" d="M166.36,107.14a5,5,0,0,1,.19,1.73c-.13.95-.21,0-.35,0,.11.67.31,2.33.52.24l-.06-.33a14.29,14.29,0,0,1,.74-4A6.7,6.7,0,0,0,166.36,107.14Z"/><path class="cls-2" d="M167.2,96.24,167,92.35l-.38,2,.23-.1C166.75,96.45,167,96,167.2,96.24Z"/><polygon class="cls-2" points="168.54 75 169 75.52 168.35 73.27 168.54 75"/><polygon class="cls-2" points="168.49 69.94 168.88 70.13 168.64 68.8 168.49 69.94"/><path class="cls-2" d="M5.18,58.85,5.29,60C5.25,59.46,5.22,59.11,5.18,58.85Z"/><path class="cls-2" d="M5.2,50.58,5,50.37C5.12,50.76,5.2,50.91,5.2,50.58Z"/><path class="cls-2" d="M108.4.83c-1.66-.36-3.52-.94-3.32-.49l.51.43A14.6,14.6,0,0,1,108.4.83Z"/><path class="cls-2" d="M23.37,3.43l.48.13L25,3.14Z"/><path class="cls-2" d="M22.19,5.22,20,4.94A21.55,21.55,0,0,0,22.19,5.22Z"/><path class="cls-2" d="M5.64,104.05l.44,1.34C6.08,103.3,5.85,104.22,5.64,104.05Z"/><path class="cls-2" d="M168.33,18.17c.17-1.44.24-2.59.26-3.59C168.34,16.31,168,17.71,168.33,18.17Z"/><path class="cls-2" d="M.57,55.6c.08.7.17,1,.27,1C.76,55.85.68,55.45.57,55.6Z"/><path class="cls-2" d="M168.59,10.43c0,.25-.07.5-.11.76a32.6,32.6,0,0,1,.11,3.39A12,12,0,0,0,168.59,10.43Z"/><path class="cls-2" d="M104.31,164l.37.05C104.72,164,104.55,164,104.31,164Z"/><path class="cls-2" d="M152.07,168.38c-.48,0-1.24,0-2,0A15.18,15.18,0,0,0,152.07,168.38Z"/><path class="cls-2" d="M168.68,49.6c0,1.08,0,.17,0,0Z"/><path class="cls-2" d="M167,54.82c-.05-.23-.11-.4-.21-.43A.79.79,0,0,1,167,54.82Z"/><path class="cls-2" d="M162.37,3.39h-.09C162.58,3.47,162.53,3.46,162.37,3.39Z"/><path class="cls-2" d="M168.48,51.22c.05-.41.1-.87.13-1.37C168.57,50.07,168.53,50.48,168.48,51.22Z"/><path class="cls-2" d="M168.68,51c0,.37,0,.66,0,.94S168.76,52,168.68,51Z"/><path class="cls-2" d="M168.65,48.11c0,.61,0,1.18,0,1.74,0-.22,0-.3.07-.25C168.67,49.29,168.66,48.85,168.65,48.11Z"/><path class="cls-2" d="M16.47,165.16l.23,0C17.79,165,17.31,165.05,16.47,165.16Z"/><path class="cls-2" d="M80.5,5.34l.12,0-.16,0Z"/><path class="cls-2" d="M76.65,5.66a8.06,8.06,0,0,1,3.81-.36L79.19,4.05Z"/><path class="cls-2" d="M5.3,78.67,5.69,76c.64,3.26.42,5.62,1,3.08-1.36-.38-.14-10.51-1.5-10.89l.29-1.78c0,.51.07.59,0,1.1.65-3.47-1-2.58-.79-7,.11-1.56.31-2.65.47-1.59l-.34-3.47c0-1,.26-.76.24.25L5,50.33l0,0c-.21-.75-.54-2.46-.68-3.3.19-1.34.14.68.31.33l-.33-2.93c.35-1.19.69,1.24.64,3.26C6.31,45,4.61,45.3,5.4,39.4l.18,2.76c.77-1.78.49-3.94,1-7.07-.25.74-1.21,6.26-1.55,3.08a13.63,13.63,0,0,0-.12-3.79c.48,0,.36-1.69.33-3.78l.64.14c-.18-2.27-.51-2.09-.79-3.42.06-2.53.55-3.05,1-3.65.1-4-.79,2.8-.91-2a53.54,53.54,0,0,0-.4-9.75c.22-2.35.39.41.57-.43L4.78,9.41c0-.51.17-.34.25-.26-.1-.88-.26-.92-.42-1.08a1,1,0,0,1-.22-.46,4.67,4.67,0,0,1-.1-.49,4.33,4.33,0,0,1-.07-.53c-.31-.28-.15-1.11.06-1.79.71.13,1.4.29,2,.35a2.9,2.9,0,0,0,.43,0c.26,0,.53,0,.79,0A9.16,9.16,0,0,0,9,5c.85.18-.4.39-.14.64a71.32,71.32,0,0,0,7.87-1.09L20,4.94c-2.42-.48.67-1.05,3.37-1.51-.86-.24-1.59-.44-2.08-.54l4.31-.34c.52.11.08.32-.62.59L25.77,3c1.54.24.74.6-.36,1l-1.56-.39C22.79,4,21.79,4.38,22,4.75a8.54,8.54,0,0,1,1.41-.17c-.28.1-.46.2-.33.26a3.84,3.84,0,0,0,1.3-.24l1,.72L25.62,5l5.64.45c4-.72,7.54-1.77,13.94-2.07-1.59.52-.34.86-.43,1.47-1.74-.65-5,.28-8.27.15,1.73.07,1.35.36.91.47l5.91-.6c-.13.51,1.26.38,2.81.59-1.17-1,4.41-.67,6.81-1,.15.33-.42.68-3.36.59,3.24.76,4.19-1.17,7.37-.53-.72,0-1.11,0-1.39.13,1.68-.3,5.77-.07,4.81.23h-.72c4.76.12,14.5,0,15.21-.84A3.33,3.33,0,0,1,74,5.3l8.49-2.86c-.75.73,2.13,2.47-1.82,2.88a22.86,22.86,0,0,0,4.93,0c-.78-.11-1.93-1.06-.87-1.13a41.11,41.11,0,0,0,5.59,1.13c-1.16-.15.12-1.3,2-1.26-.29.17.15,1.13-.52,1.25l4.56-1.13c-1.14.2-.2,1,.82,1.27-.48-.22,3.94,0,5.16-.09l-1.94-.26c5.15.17,5.09-1.58,10.2-1.52-.62.23-1.53,1.43,1.07,1.57a28.91,28.91,0,0,1,9.79-3.21l.86.33,3.47-.38a100.65,100.65,0,0,1-11.52,3.4c1.92.26.53.39,3.42.36,1,.31-1.58.47-2.42.49l6.71.19c-.3-.67,5.14-.67,4.88-1.23l-7.29.7c-.3-.67,4.22-1.91,9-1.79,1.21.27-.91,1.19-.81,1.42a21.74,21.74,0,0,1,5-.28l-2,.36c2.65.25,4.32-.89,7.51-.25,1.09,0,3.28.87,3.47.47-1.8-.77-2.15-3.14-.95-3.72.38,0,5.77.74,7,1.11,1.81.61-2.71,1.44-1.17,2,.06-.18,1.06-.41,1.48-.48,1.16.16-.48.57,2,.49.42-.68,5.1,0,1.19-.58,2.45-.19,2.6.14,5.49.11-.92-.44,2.58-1.5,5-1.69-.15.17.41.4.67.5,1.31,0,2.43,0,3.43.09-.07,1.46-.13,2.76-.19,4.11s-.1,2.85-.1,4.58c-.17.43-.37,2.69-.66,1.73a12,12,0,0,1,.37,2.74c-.59,2.8-.09-3.23-.8-1.09.4.18.55,3.74.79,5.8.62-.63.12-4.76-.13-6.82.85,0,1.73,3.58,2.12,8.48.21,3.9-.54,1.69-.42,2.37-.15,7.31,1.47,6.23.86,12.3-.54,2.42-1.07.11-1.46.65-.2-3.18.34-4.87.32-7L166.25,34a17.76,17.76,0,0,1-.16-4.28c-.48,2-.09,12.36-.54,18,.18,1,.37,2.73.58,1.91l-.07-1.78c.43-1.64.6,3.36.8,1.1a38.31,38.31,0,0,1,.54,8.45l-.61.64a7.9,7.9,0,0,0,.18-3.16c.27,1.41-.83,5.18,0,6.72l.42-2.37a42.75,42.75,0,0,1,.77,8.37c.6-1.36-.07-.69.64-2.81-.88,1.84,0-7.65-.89-4.69.82-2.18.35-3.77,1.05-6.62-.2.09-.39,1-.29-1.5a4.45,4.45,0,0,1-.18-.55l0-.17,0,.14c0-.11,0-.12,0,0a5,5,0,0,1-.31,1.28c-.47-1.25-.45-5.24-.69-6.59.09-1.49.23.62.45-.19l-.36-2c.45-.2.74-4,1-.45l0-3.15a27.82,27.82,0,0,0,.16-6c.1-1.48-.5-3.76-.15-2.46l-.27-4.95.11-.05c.05-4.88-.75-10,.06-15.64,0-.82-.12-1.66-.15-2.63l0-.76v-1c0-.92,0-1.93.05-3.06l.39-1.14c0-.6,0-1.3,0-2.1l-6.1-.14-1,0h-.71a3.17,3.17,0,0,0-.95.14c-2.28-1-10.25-.22-14-.41l-.14.51c-2.56,0-5,.11-8.18.32l.19.44c-2.73.37-7-.31-11.36-.27a5.61,5.61,0,0,1,2.17,0c-5.17-1-10.91.74-15.6,0a9.47,9.47,0,0,1-2.83,0l.29,0H110L108.4.83c.49.11,1,.2,1.37.25-.9,0-2.27.06-3.61.17l-.57-.48h-.31c-1.31-.17-1.06.23-.35.59a14.86,14.86,0,0,0-1.78.3c-1.06-.78-3.51.26-5-.57-.9.4-6.73.3-7.45,1.15,0-.11-.44-.16.29-.17a18.89,18.89,0,0,0-4.33,0l-.63-.61-3.27.82C80.81,2,80,1.75,82,1.28c-4.75.72-3.86.27-7.9,1l.2-.4c-1.44,0-3.75.55-4.62.22-3.23-.75-16-.1-24.28-.8,1.61,1.16-3.85-.52-4.18.38-.48-.28-1.64-.43-.29-.67-4.24.27-6.36-.44-9.28.32-.49-.27.9-.4.47-.56A4.76,4.76,0,0,1,30.3.83c-.44-.16.62-.23,1.28-.35-4.32.05-4.76.89-5.07,1.69a8.64,8.64,0,0,0-4.86.2c-.77-.26-2-.53.65-.63-1.51,0-9.23-.38-9.39.26A8.76,8.76,0,0,0,10.4,2L6.87,2H5L2.25,2l1.31.11A3.12,3.12,0,0,1,2,2.49c0,.62,0,1.25-.08,2s-.08,1.71,0,2.75L1.76,7.2c-.56,6.15.26,2.65-.37,8.72l.48-.33c1,.57-.61,5.38-.21,8.91l.27-1.27C2.28,25.15.53,28.61.4,30.54c-.09.42-.15-.67-.21-1.26-.61,5.07.63.66.77,4.43-.34.7-.86-.89-.92,1.64-.28,1.27,1.1,7.36.45,10.83.26-.77.52-1.52.72.23.09,2.68-1,7.26-.17,9.68-.07.34-.14.47-.2.48.21,2.06.35,6.67.8,7.91C0,66.38,2.44,77.24.91,77.19L1,83.5l-.16-.16a21,21,0,0,0,.63,6.88c-.1.93-.25.25-.33.17a39.67,39.67,0,0,0,.52,11.43l-.49.51c.29,1.34-.78,8.52-.2,14.31-.06-.06-.15-.18-.22-.64.58,6.51-1.38,15.58.43,18l.44,4.29c.14-5.55.78.83,1.08-1.46.11,2.19-.54,5.65-.63,3l.09-.42c-.94-1-.34,6.9-1,6.75,0,3.46,0,6.9-.09,10.3-.08,4.05-.16,8.07-.24,12l7.71.12,5.68.07-1.18-.73,3.57,0c.93.17,1.26.57-1.29.54a8.57,8.57,0,0,0,4.34-.51c5,.3-1.95.86-.42.88l2.08-.06-.47-.08a15.72,15.72,0,0,1,4.9-.58c1.94.14,1,.45,1.76.47,0,.06.25.08,1.16,0l4.5.06-1.8-.58c2-.28,4.24,0,2.16-.62,3.05,1,16.78.36,18.65.67a54.28,54.28,0,0,1,9-.36c-.85-.12-1.36-.77,1.59-.69-1.08,1.34,5.39.58,7.77,1.54-2.13-.63,8.37-.15,5-1.06,2.45.11.15.5,2,.82,5.85-.52,12.89.33,20.12.16.11-.18-1.1-.45.45-.71l3.82.88c1.43-.09,1.32-1,3.93-.4-.37-.15-.92-.37,0-.43,14.16.86,28.94-.7,43.33.91-2-.34-.65-.38.83-.39-1-.08,0-.43-.16-.67l6,.66c1.1-.66,6.46-.05,7.08-.68l-1.9.12c2.53-.75-3.55-1.66-3.18-2.62-2.84.85-7.49-1.26-12.15,0-1-.2.88-.31.33-.53a13.23,13.23,0,0,1-5.25.31l.3-.1c-7.43.1-10.61-.31-19-.58l.62.48a20.2,20.2,0,0,1-3-.33c-2,.71,5,0,3.16.83-2.37-1-12.64,0-14.25-1.11-2.75,0,.81.55-1.94.54l-.73-.3-.7.39c-1.81-.07-2.72-.44-2.79-.69.44,0,1.25-.07,1.72-.09-2.35-.35-6.61.12-7.42,0l2.65.19c-7.52.27-16.71-.11-24,.49l.56.22c-5.56.41-4.45-.24-10.55-.05l.22-.06a23.47,23.47,0,0,1-4.51.31c1.54-.26-2.9-.51-.88-.79-6,.44-3,.34-7,1.17l-.91-.37a13.67,13.67,0,0,1-4.52.61c2.5-.32-1.94-.56.86-1-6.39-.81-9.49.82-12.42-.37-2.93,1,5.53.57,3.89.79,1.37.33-2.43.77-4.43.66s-3.47-1.31-8.61-1.29c.51,0,.55-.07,1.06-.07-1.92-.26-3.77.36-6.12-.07-1.32.62-3.06,0-3.44.76L23.5,165c-2.67.21-5.18,1.14-9.58.69a15.58,15.58,0,0,1,2.55-.49c-1.28-.23-2.47.15-3.81-.08.39-.8,5.73-.18,8.59-.78-1.38-.34-5.41.57-4-.29-2.07,1.1-5.06-.13-8.54.7l.23-.47-1.18.17-.75.08-.38,0H6.47a1.37,1.37,0,0,1,.25-.15l.46-.16.92-.3a9.1,9.1,0,0,1-1.35.14,2.38,2.38,0,0,1-.55,0,2.6,2.6,0,0,1-.71-.26,1.33,1.33,0,0,0,0-.87,2,2,0,0,1-.14,1c0,.1-.16.24-.34.38s-.33.28,0,.4l-.5.07a4.63,4.63,0,0,1,0-1.73L5,161.57c.35-1.08.72-2.35.61-6.08.07,1.06-.29,4-.51,2.31a29.49,29.49,0,0,1,.53-4.36c-.1-5.17-.49.8-.78-1.4.58-1.77-.23-2.54-.42-4.81l.48,0c.31-5.89-1-1.56-.63-6.87L5,142.59l-.17-2.77.55.57a28.46,28.46,0,0,1-.15-6.89c-.34.68-.87-.39-.89-3,.29-1.78.46,1,.39-2.7A4.8,4.8,0,0,1,5,131.16c.15.16.3.82.45,1A37.82,37.82,0,0,0,5.47,126a9.22,9.22,0,0,1-.11,1.45l-.67-5.36c.18-.85.33-.18.47.49,0-1.09-.27-1.84-.31-3.44.39.41.79.32,1,2.58l-.44-5.11c.17-.35.47-2.63.62-2,.23-2.84-.76-7-.46-10.71a5.45,5.45,0,0,1-.21-1.39c.09-3.53.57-6.65,0-10.84l.7-2.37c-.16-3.28-.89,3.21-1.15-2.25-.22-3.86.6-1.44.79-2.79a25.41,25.41,0,0,1-.5-8.81C5.35,76.65,5.25,77.57,5.3,78.67ZM5,38.25c.1.78.41,2.35.13,2.92C4.57,40.28,4.83,39.59,5,38.25ZM29.32,4.35a6.42,6.42,0,0,1-2.5-.1A13.68,13.68,0,0,1,29.32,4.35Zm139,33.5,0-.08C168.45,36,168.37,36.64,168.28,37.85Zm-.21,3.63c.07.36.14.34.2.18a6.54,6.54,0,0,1-.09-2A3.54,3.54,0,0,0,168.07,41.48ZM27.93,168.41l-.71-.13C28.82,168.14,28.37,168.27,27.93,168.41Z"/><path class="cls-2" d="M22.35,5A.52.52,0,0,1,22,4.75C21.71,4.83,21.7,4.93,22.35,5Z"/><path class="cls-2" d="M5.56,103.81v.12a.25.25,0,0,0,.09.12Z"/><path class="cls-2" d="M147.91,5.29A6.14,6.14,0,0,1,146.47,5C146.43,5.16,146.77,5.26,147.91,5.29Z"/><path class="cls-2" d="M168.89,60.7l-.12-2.32a10,10,0,0,1-.16,2.09C168.72,60.42,168.89,60,168.89,60.7Z"/><path class="cls-2" d="M165.91,80.87c.06.34,0,.72.06,1.06l.23-.1C166.18,80.39,166,79.38,165.91,80.87Z"/><path class="cls-2" d="M167.29,62.85c-.41.19-.27,1.64-.19,3.27v-.29C167.67,66.31,167.48,64.58,167.29,62.85Z"/><path class="cls-2" d="M167.11,66.5c0,.5,0,1,0,1.5C167.35,68.2,167.17,67.39,167.11,66.5Z"/><path class="cls-2" d="M168.34,46.08c-.1.77.52.48.36.92C169.21,47.86,168.07,41.85,168.34,46.08Z"/><polygon class="cls-2" points="165.95 64.17 166.45 63.59 166.05 62.67 165.95 64.17"/><path class="cls-2" d="M166.32,51.32l-.14,2.6c.09,0,.14.29.17.7A16.83,16.83,0,0,0,166.32,51.32Z"/><path class="cls-2" d="M166.35,54.62a12.4,12.4,0,0,0,.09,2.09C166.43,56.26,166.41,55.29,166.35,54.62Z"/><polygon class="cls-2" points="165.8 60.62 165.91 59.85 165.94 58.01 165.8 60.62"/><path class="cls-2" d="M166.42,23.36l-.15-2.84c-.17-.29-.27.49-.2,1.54C166.19,22.74,166.25,23.79,166.42,23.36Z"/><path class="cls-2" d="M165.05,31.94a3.42,3.42,0,0,1,.38-1.25l-.62-.08Z"/><path class="cls-2" d="M164.9,23.67c-.17-.29-.49-4.12-.46-.53C164.62,23.43,164.76,26.28,164.9,23.67Z"/><polygon class="cls-2" points="143.52 3.59 144.24 3.58 144.14 2.56 143.52 3.59"/><path class="cls-2" d="M105.82,6c3.37.24.8-.63,3.84-.33.79-.24-2.48-.25-1.67-.45C106,5.5,104.89,5.36,105.82,6Z"/><path class="cls-2" d="M108,5.25c.32,0,.67-.09,1-.16A7.38,7.38,0,0,0,108,5.25Z"/><polygon class="cls-2" points="159.99 168.92 162.15 169.14 160.76 168.79 159.99 168.92"/><path class="cls-2" d="M164.14,168.17l.51.65,1.3-.59A6.31,6.31,0,0,1,164.14,168.17Z"/><path class="cls-2" d="M6.3,32.24l-.16-.16a5,5,0,0,0-.21,1.85Z"/><polygon class="cls-2" points="5.81 61.58 5.83 61.07 5.24 62.02 5.81 61.58"/><path class="cls-2" d="M6.56,86.2c0-1-.11-2.19-.08-3.2C6.59,85.19,5.83,86.47,6.56,86.2Z"/><path d="M95.06,58.87a8.7,8.7,0,0,1,6.54-2.31,9.1,9.1,0,0,1,8.64,9.57,9.28,9.28,0,0,1-9.66,8.76,8.77,8.77,0,0,1-6.35-3,8.67,8.67,0,0,1-2.35-6.61A9.24,9.24,0,0,1,95.06,58.87Zm4.23,4.92a2.41,2.41,0,0,0-.81,1.77A2.7,2.7,0,0,0,101,68.32a2.45,2.45,0,0,0,2.65-2.41A2.6,2.6,0,0,0,103,64a2.64,2.64,0,0,0-1.8-.89A2.45,2.45,0,0,0,99.29,63.79Z"/><path d="M107.69,39.17l4.87-4.41,9.81,10.81a9.87,9.87,0,0,1,2.85,6.27,8.72,8.72,0,0,1-.73,3.8,9.38,9.38,0,0,1-8.93,5.7,8.69,8.69,0,0,1-6.34-3,8.8,8.8,0,0,1-2.33-6.54,8.59,8.59,0,0,1,2.87-6.26c.28-.26.74-.63,1.37-1.1L116,49.82a2.59,2.59,0,0,0-1.63.62,2.36,2.36,0,0,0-.79,1.72,2.48,2.48,0,0,0,.67,1.83,2.41,2.41,0,0,0,1.74.79,2.53,2.53,0,0,0,1.83-.68c1.25-1.13,1.09-2.57-.48-4.29Z"/><path d="M138.09,54.36l-3.84-4.23A6.21,6.21,0,0,0,136.36,49c1.58-1.43,1.79-3.25.65-5.45a6.65,6.65,0,0,1-1.82,3A5.06,5.06,0,0,1,131,47.9a6.79,6.79,0,0,1-4.28-2.37l-7.41-8.16L124.17,33l6.33,7c.7.77,1.37.87,2,.28s.54-1.26-.23-2.11l-6.23-6.86,4.87-4.42,10.52,11.59a10,10,0,0,1,2.92,6.88,9.26,9.26,0,0,1-3.1,7.14A10.17,10.17,0,0,1,138.09,54.36Z"/><text class="cls-3" transform="matrix(0.7, 0.72, -0.72, 0.7, 67.77, 114.35)">ind</text><path class="cls-4" d="M82,72.67c-5.72-6.62-21.21,8.21-21.21,8.21l-.72-.77L56.5,76.27l-.72-.77S71.62,61,65.39,54.89c-6-6-21,4.84-35,18.33l31,33.17C75.78,93.33,87.58,79.1,82,72.67Z"/><path d="M65.39,54.89C71.62,61,55.78,75.5,55.78,75.5l.72.77s8-7.9,16.45-11.78c3.43-6.32,4.49-13.07-2.56-17.15-14.59-8.44-40,15.91-44.8,20.77l4.78,5.11C44.36,59.73,59.36,48.92,65.39,54.89Z"/><path d="M60.09,80.11l.72.77S76.3,66.05,82,72.67c5.56,6.43-6.24,20.66-20.64,33.72l4.78,5.11c5.17-4.5,31.17-28.19,23.73-43.3-3.6-7.31-10.41-6.71-16.94-3.71C68.51,72.67,60.09,80.11,60.09,80.11Z"/><path d="M56.5,76.27l3.59,3.84S68.51,72.67,73,64.49C64.49,68.37,56.5,76.27,56.5,76.27Z"/><rect x="12.31" y="89.83" width="59.18" height="7.4" transform="translate(81.57 -0.97) rotate(46.9)"/><text class="cls-5" transform="matrix(0.72, -0.69, 0.69, 0.72, 52.87, 96.73)">&amp;</text></g></g></svg>